<?xml version="1.0" standalone="no"?>
<!DOCTYPE svg PUBLIC "-//W3C//DTD SVG 20010904//EN"
 "http://www.w3.org/TR/2001/REC-SVG-20010904/DTD/svg10.dtd">
<svg version="1.0" xmlns="http://www.w3.org/2000/svg"
 width="512.000000pt" height="512.000000pt" viewBox="0 0 512.000000 512.000000"
 preserveAspectRatio="xMidYMid meet">
<metadata>
Created by potrace 1.14, written by Peter Selinger 2001-2017
</metadata>
<g transform="translate(0.000000,512.000000) scale(0.100000,-0.100000)"
fill="#000000" stroke="none">
<path d="M0 2560 l0 -2560 2560 0 2560 0 0 2560 0 2560 -2560 0 -2560 0 0
-2560z m2515 1201 c168 -252 305 -461 305 -464 0 -3 -45 -33 -101 -67 l-100
-63 23 -25 c13 -13 196 -191 408 -395 212 -203 386 -373 388 -376 1 -4 -56
-35 -128 -69 -71 -35 -130 -67 -130 -72 0 -11 31 -52 525 -690 514 -665 491
-635 473 -628 -17 7 -375 214 -1143 663 -587 343 -571 333 -568 341 1 4 73 41
159 83 l158 77 -255 150 c-140 83 -386 229 -547 324 -161 95 -291 174 -290
175 2 1 82 44 178 95 96 51 181 97 187 104 10 9 -110 85 -525 334 -295 177
-554 333 -575 345 l-39 24 449 208 c775 361 828 385 836 385 4 0 145 -206 312
-459z"/>
</g>
</svg>
