<?xml version="1.0" standalone="no"?>
<!DOCTYPE svg PUBLIC "-//W3C//DTD SVG 20010904//EN"
 "http://www.w3.org/TR/2001/REC-SVG-20010904/DTD/svg10.dtd">
<svg version="1.0" xmlns="http://www.w3.org/2000/svg"
 width="512.000000pt" height="512.000000pt" viewBox="0 0 512.000000 512.000000"
 preserveAspectRatio="xMidYMid meet">
<metadata>
Created by potrace 1.14, written by Peter Selinger 2001-2017
</metadata>
<g transform="translate(0.000000,512.000000) scale(0.100000,-0.100000)"
fill="#000000" stroke="none">
<path d="M2421 5111 c-10 -7 7 -33 73 -110 l86 -102 0 -153 0 -153 50 -62 50
-62 0 -103 0 -103 88 -100 c49 -55 112 -128 140 -162 l52 -62 0 -164 0 -163
-45 -55 -45 -56 0 -122 c0 -100 3 -126 17 -141 20 -22 21 -71 3 -94 -11 -12
-24 -15 -57 -10 -32 4 -58 0 -98 -17 -30 -12 -55 -27 -55 -32 0 -13 78 -88
138 -134 23 -19 51 -50 62 -70 10 -20 59 -79 108 -131 76 -80 92 -93 104 -81
11 11 11 14 -1 19 -28 10 -61 51 -61 77 0 27 31 65 54 65 7 0 24 -8 37 -19 22
-17 54 -19 377 -26 l354 -7 46 49 c26 26 68 73 95 104 l47 56 0 831 0 831 -27
21 -28 22 -5 -810 -5 -809 -59 -69 c-32 -38 -76 -88 -98 -111 l-39 -43 -324 0
c-178 0 -326 4 -329 8 -16 27 18 31 281 34 149 2 275 6 279 11 4 4 -2 18 -14
30 -22 22 -28 22 -268 22 -241 1 -247 0 -277 -22 -63 -47 -127 20 -81 85 19
27 53 28 87 2 24 -19 40 -20 278 -20 l254 0 91 93 92 92 6 615 c4 338 6 695 4
793 l-3 179 -77 41 c-42 23 -78 40 -80 37 -2 -3 -1 -113 2 -245 l5 -241 43
-50 42 -50 0 -490 0 -489 -91 -105 c-50 -58 -98 -108 -107 -112 -9 -4 -114 -7
-233 -7 -176 -1 -219 2 -228 13 -26 31 20 37 224 31 107 -4 204 -4 215 0 10 3
58 50 105 103 l85 96 0 474 0 473 -42 51 -43 50 -5 260 -5 259 -76 34 c-42 18
-116 47 -164 64 l-87 31 31 -37 c16 -21 75 -89 129 -152 l100 -113 7 -432 7
-431 44 -54 44 -53 0 -167 0 -166 -69 -80 c-37 -44 -76 -95 -85 -112 -18 -35
-45 -43 -65 -19 -13 16 1 56 19 56 11 0 126 119 151 156 16 25 19 49 19 173
l0 145 -50 46 -50 46 6 430 6 429 -23 31 c-67 90 -275 317 -298 325 -30 12
-214 54 -281 64 l-45 7 24 -25 c21 -23 33 -27 99 -29 l76 -3 94 -105 c52 -58
117 -131 143 -163 l49 -58 0 -178 0 -177 -45 -53 -45 -53 0 -152 0 -153 62
-68 c57 -62 64 -67 95 -62 43 7 77 -8 92 -40 19 -41 13 -69 -24 -113 -19 -23
-35 -52 -36 -63 -4 -89 -7 -96 -52 -152 -43 -52 -47 -62 -47 -110 0 -49 -4
-57 -46 -104 -43 -47 -64 -57 -64 -28 0 7 18 34 40 61 35 42 40 55 40 99 0 45
5 55 46 104 l47 54 -5 70 c-4 44 -11 76 -22 88 -9 9 -16 25 -16 35 0 33 -28
82 -84 146 l-56 65 0 169 0 169 45 55 45 54 0 167 -1 166 -132 150 -132 150
-75 3 -75 2 -40 45 -40 45 -90 7 -90 6 52 -59 c28 -32 80 -92 116 -132 l64
-73 6 -272 c3 -150 8 -280 12 -290 11 -26 32 -4 46 45 6 22 28 63 50 90 21 27
36 54 33 59 -9 14 4 55 22 73 38 38 98 3 96 -56 -1 -39 -32 -68 -72 -68 -20 0
-38 -11 -60 -37 -28 -32 -31 -41 -26 -76 9 -55 29 -89 100 -171 35 -39 68 -81
75 -93 8 -15 11 -132 11 -391 l0 -370 -42 -51 c-40 -47 -78 -66 -78 -39 0 6
18 33 40 59 l40 48 0 365 0 366 -63 72 c-49 57 -74 76 -112 90 -38 14 -51 15
-57 5 -18 -29 -3 -57 82 -152 l89 -100 1 -229 0 -229 -45 -53 -45 -52 0 -82
c0 -65 4 -89 22 -119 27 -46 19 -87 -19 -102 -57 -21 -98 54 -58 107 10 13 14
47 15 116 l0 98 50 55 50 55 0 205 0 204 -96 112 -95 111 6 322 c5 213 4 329
-3 346 -13 31 -229 283 -251 292 -9 4 -33 7 -54 7 l-39 1 45 -49 c50 -56 55
-80 57 -280 l1 -104 45 -52 44 -52 0 -159 0 -159 140 -160 140 -160 0 -169 0
-168 -42 -51 -43 -51 -5 -155 c-4 -130 -8 -156 -20 -156 -13 0 -15 24 -18 145
-1 80 0 154 2 165 3 11 23 42 46 69 l40 48 0 157 0 156 -135 155 -134 155 -1
161 0 162 -45 54 -45 55 0 159 0 159 -53 62 -52 63 -55 0 c-30 0 -61 -4 -69
-9z"/>
<path d="M2171 5088 c-97 -12 -107 -18 -81 -46 15 -16 32 -22 64 -22 43 0 47
-3 118 -82 127 -142 128 -144 128 -200 0 -48 2 -52 90 -152 l90 -103 1 -94 c1
-52 4 -104 7 -116 4 -12 67 -90 140 -172 l132 -151 6 -113 6 -113 -46 -54
c-26 -30 -49 -65 -53 -78 -11 -44 3 -215 20 -249 31 -59 37 -49 37 66 l0 110
45 51 45 51 0 157 -1 157 -134 155 -135 154 0 108 0 108 -33 37 c-68 77 -67
74 -67 240 l0 152 -76 93 c-42 51 -84 99 -92 106 -18 14 -100 14 -211 0z"/>
<path d="M1940 5042 c-36 -9 -56 -18 -44 -20 11 -2 45 -27 74 -57 49 -49 59
-55 97 -55 41 0 45 -3 137 -107 95 -106 96 -107 96 -159 0 -56 1 -57 133 -206
l57 -65 0 -106 0 -106 95 -108 95 -107 0 -196 c0 -172 3 -200 20 -238 11 -24
24 -41 30 -37 5 3 10 39 10 80 0 73 1 74 45 126 l45 53 0 97 0 98 -137 158
-138 157 -5 116 -5 116 -87 99 c-87 98 -88 100 -88 152 0 49 -4 57 -56 120
-109 131 -124 143 -169 143 -34 0 -47 6 -75 35 -38 39 -40 40 -130 17z"/>
<path d="M1667 4956 c-48 -19 -91 -36 -94 -40 -4 -3 52 -6 123 -6 l130 0 48
-49 c41 -41 57 -51 97 -56 41 -6 55 -14 98 -60 48 -51 51 -57 51 -108 l0 -54
118 -134 c178 -204 162 -175 162 -295 l0 -103 71 -81 c39 -44 84 -87 100 -96
34 -17 40 -58 10 -74 -17 -9 -25 -3 -57 45 -20 31 -39 53 -42 51 -3 -3 7 -23
20 -44 14 -21 40 -65 56 -98 17 -32 42 -77 56 -99 l25 -40 0 160 0 160 -89
104 -90 105 0 106 0 107 -86 98 c-94 107 -104 126 -104 188 0 38 -8 51 -86
140 -83 95 -86 97 -129 97 -40 0 -48 5 -96 55 l-52 55 -76 0 c-61 -1 -93 -7
-164 -34z"/>
<path d="M1420 4847 l-65 -32 143 -5 143 -5 47 -50 c26 -27 68 -75 93 -104
l47 -55 96 -4 97 -4 112 -127 c198 -223 177 -187 177 -301 0 -103 3 -110 41
-90 16 9 19 22 19 88 0 91 9 76 -157 270 l-123 143 0 53 c0 48 -4 58 -40 98
-35 40 -45 46 -91 50 -46 5 -55 10 -96 57 l-45 51 -166 0 -167 0 -65 -33z"/>
<path d="M1230 4742 l-65 -37 192 -3 191 -2 84 -93 c111 -122 118 -132 118
-190 0 -49 0 -49 167 -239 l166 -190 36 7 c37 7 61 21 61 36 0 7 -44 60 -152
184 -4 5 -23 8 -42 7 -27 -2 -39 3 -55 24 -12 15 -21 34 -21 44 0 27 39 70 64
70 38 0 59 -32 65 -102 1 -4 38 -50 84 -101 45 -52 87 -102 92 -112 8 -13 17
-16 33 -11 21 7 22 13 22 114 l0 107 -131 153 -131 152 -94 0 -93 0 -86 100
c-47 55 -94 104 -105 110 -10 6 -89 10 -177 10 l-158 0 -65 -38z"/>
<path d="M3884 3971 l7 -778 -45 -54 c-83 -98 -100 -127 -98 -169 2 -21 -2
-41 -8 -45 -18 -11 -11 -25 14 -25 22 0 109 87 174 174 l22 30 0 802 0 803
-29 20 c-16 12 -32 21 -37 21 -4 0 -4 -350 0 -779z"/>
<path d="M1008 4589 c-60 -44 -108 -84 -108 -89 0 -12 -28 -11 288 -10 l263 1
32 -33 c18 -18 109 -121 202 -228 94 -107 191 -217 216 -244 l46 -49 43 15
c24 8 45 19 47 24 2 5 -69 92 -157 194 l-159 185 -1 52 c0 49 -4 57 -56 120
-32 38 -73 85 -92 106 l-36 37 -211 0 -210 0 -107 -81z"/>
<path d="M4070 3794 l0 -826 -91 -106 -92 -107 -56 -6 c-31 -4 -196 -7 -367
-8 -273 -1 -313 -3 -325 -17 -11 -14 -10 -18 6 -30 16 -12 89 -14 419 -12
l400 3 83 95 82 95 3 850 3 850 -25 22 c-14 13 -28 23 -32 23 -5 0 -8 -372 -8
-826z"/>
<path d="M4160 3708 l0 -853 -95 -107 -95 -107 -397 -4 c-219 -2 -408 -7 -420
-12 -27 -9 -29 -18 -7 -39 14 -14 69 -16 459 -16 l443 0 69 78 c38 42 79 90
91 106 l22 29 0 862 0 863 -35 26 -35 27 0 -853z"/>
<path d="M3124 4515 c-4 -9 0 -23 9 -32 21 -21 49 -9 45 19 -4 28 -45 38 -54
13z"/>
<path d="M820 4433 l-54 -48 34 -5 c27 -4 50 -23 117 -97 l83 -92 0 -69 0 -69
56 -64 c31 -35 72 -81 92 -102 l34 -39 107 5 c58 3 122 9 142 12 34 6 38 4 55
-24 11 -19 27 -31 39 -31 31 0 172 46 203 66 15 10 53 21 86 25 106 13 109 6
-136 289 -121 140 -227 258 -237 262 -9 4 -135 7 -281 7 -171 1 -270 5 -276
11 -8 8 -27 -4 -64 -37z m456 -288 c22 -23 33 -25 106 -25 73 0 83 2 104 25
28 30 57 32 84 5 39 -39 12 -120 -40 -120 -12 0 -32 12 -45 26 -20 21 -35 26
-98 31 -72 6 -74 5 -106 -26 -37 -36 -50 -38 -82 -13 -28 23 -30 73 -4 102 24
27 51 25 81 -5z"/>
<path d="M1215 4127 c-25 -19 -12 -59 18 -55 26 4 35 39 14 56 -10 9 -18 8
-32 -1z"/>
<path d="M1504 4116 c-10 -26 4 -48 28 -44 17 2 23 10 23 28 0 18 -6 26 -23
28 -13 2 -25 -3 -28 -12z"/>
<path d="M4251 3618 l4 -864 -96 -110 -96 -109 -434 -5 -434 -5 27 -27 c20
-21 37 -28 66 -28 116 0 124 -4 222 -116 88 -101 90 -103 137 -106 l48 -3 372
-430 373 -430 0 -283 c0 -156 4 -282 8 -280 15 5 100 105 172 202 l70 93 0 74
c0 89 70 0 -543 697 -442 503 -470 532 -501 532 -33 0 -62 20 -49 33 3 4 27 7
53 7 l46 0 135 -157 c177 -206 430 -499 654 -757 240 -277 235 -270 235 -325
0 -52 5 -49 54 33 26 43 36 71 36 100 -1 39 -13 54 -230 300 l-230 259 0 63
c0 52 -4 67 -25 92 -43 52 -23 122 35 122 56 0 79 -73 38 -117 -17 -18 -22
-36 -22 -81 -1 -67 -22 -36 208 -302 270 -312 261 -306 305 -215 50 103 90
209 83 221 -4 7 -24 31 -45 53 l-38 41 -92 0 -91 0 -53 57 c-47 51 -53 61 -53
101 0 32 -7 52 -25 74 -14 16 -25 38 -25 49 0 24 43 69 65 69 25 0 55 -38 55
-69 0 -15 -9 -40 -20 -54 -34 -43 -27 -94 21 -150 l41 -47 91 0 91 0 47 -49
47 -49 11 26 c13 35 47 155 59 209 l10 42 -126 3 c-89 2 -127 7 -130 16 -3 9
27 12 127 12 71 0 132 3 134 8 3 4 8 22 12 40 l7 32 -142 0 c-109 0 -141 3
-138 13 3 8 45 13 144 17 l139 5 3 39 3 38 -128 -6 c-70 -3 -141 -7 -158 -8
-26 -3 -30 0 -30 22 0 22 4 25 30 22 17 -2 90 -5 163 -8 124 -6 132 -5 132 13
0 10 3 28 6 40 6 22 6 22 -147 25 -111 2 -153 6 -157 16 -3 9 32 12 152 12
l156 0 0 40 0 39 -150 3 c-92 2 -150 7 -150 13 0 6 58 11 150 13 l150 3 0 40
0 41 -137 -6 c-76 -3 -151 -6 -168 -8 -26 -3 -30 0 -30 22 0 22 4 25 30 23 17
-1 92 -5 168 -9 l137 -7 0 62 0 61 -20 -20 c-19 -19 -31 -20 -152 -18 -94 2
-133 7 -136 16 -3 9 28 12 131 12 l136 0 21 28 c20 25 22 34 15 107 -3 44 -10
98 -15 120 l-8 40 -1 -42 c0 -24 -5 -43 -10 -43 -14 0 -18 40 -8 85 11 52 10
85 -3 136 l-11 41 -29 -27 -30 -28 -2 -166 -3 -166 -93 -3 c-73 -2 -93 0 -90
10 3 8 31 15 79 18 l74 5 3 150 3 149 40 49 41 48 -23 82 c-21 75 -24 79 -31
51 -4 -16 -47 -75 -95 -130 -333 -383 -348 -401 -349 -445 0 -31 -6 -47 -24
-61 -41 -33 -90 -2 -90 57 0 37 26 65 61 65 29 0 55 27 255 254 232 265 214
238 214 317 0 48 -7 88 -24 131 -28 76 -105 240 -133 286 l-20 32 -1 -31 c-1
-40 -18 -59 -52 -59 -55 0 -79 66 -40 108 24 25 33 27 62 11 19 -10 18 -6 -8
40 -17 28 -44 71 -62 96 l-32 45 -111 0 -111 0 -44 -47 -44 -48 -2 -417 c-2
-270 -7 -418 -13 -418 -6 0 -11 148 -13 419 l-2 419 51 61 51 61 104 0 c57 0
104 3 104 7 0 3 -11 21 -26 40 -24 32 -28 33 -94 33 -38 0 -71 4 -75 9 -7 13
22 21 68 19 20 -1 40 1 42 4 11 11 -47 68 -68 68 -12 0 -28 4 -36 9 -11 7 -10
11 5 19 17 10 11 19 -61 92 -44 45 -93 91 -109 102 l-28 21 3 -865z m349 222
c28 -28 26 -74 -5 -98 -29 -23 -59 -19 -80 11 -20 29 -19 50 6 81 24 31 52 33
79 6z m0 -230 c11 -11 20 -32 20 -47 0 -29 -35 -73 -57 -73 -21 0 -63 47 -63
70 0 24 42 70 65 70 8 0 24 -9 35 -20z m168 3 c34 -29 33 -85 -2 -108 -20 -14
-29 -14 -48 -4 -30 16 -38 28 -38 62 0 29 31 67 54 67 8 0 23 -8 34 -17z
m-171 -245 c29 -27 30 -71 3 -98 -27 -27 -55 -25 -79 6 -27 35 -26 59 4 89 30
31 42 31 72 3z m190 -19 c15 -29 8 -58 -19 -81 -26 -23 -43 -23 -68 2 -28 28
-26 74 6 99 30 24 63 16 81 -20z m-297 -354 c17 -20 5 -45 -20 -45 -11 0 -23
7 -26 15 -6 15 11 45 26 45 4 0 13 -7 20 -15z m49 -431 c27 -35 26 -59 -4 -89
-31 -32 -50 -31 -81 0 -23 23 -33 25 -109 25 l-83 0 -60 -65 -59 -65 -112 0
c-92 0 -111 3 -111 15 0 12 18 15 101 15 l100 0 68 70 67 70 87 0 c79 0 88 2
111 25 32 32 59 32 85 -1z m6 -214 c38 -74 -38 -135 -95 -75 -21 23 -31 25
-104 25 l-80 0 -57 -62 c-43 -46 -61 -60 -69 -52 -9 9 1 26 35 65 69 79 69 79
165 79 79 0 88 2 110 25 34 36 75 34 95 -5z"/>
<path d="M4542 3818 c-18 -18 -15 -46 6 -57 13 -7 23 -6 30 1 17 17 15 55 -4
62 -20 8 -18 8 -32 -6z"/>
<path d="M4542 3588 c-28 -28 3 -83 33 -58 8 7 15 20 15 29 0 17 -18 41 -30
41 -3 0 -11 -5 -18 -12z"/>
<path d="M4723 3593 c-16 -6 -17 -45 -1 -61 15 -15 48 3 48 28 0 21 -27 40
-47 33z"/>
<path d="M4537 3344 c-13 -14 -7 -43 12 -53 23 -13 45 8 39 36 -3 18 -38 30
-51 17z"/>
<path d="M4717 3344 c-12 -13 -8 -52 7 -57 21 -8 49 16 44 39 -3 19 -38 31
-51 18z"/>
<path d="M4474 2535 c-9 -23 3 -45 25 -45 21 0 33 22 25 45 -4 8 -15 15 -25
15 -11 0 -22 -7 -25 -15z"/>
<path d="M4477 2344 c-13 -13 -7 -55 9 -61 24 -9 51 23 38 45 -12 19 -36 27
-47 16z"/>
<path d="M676 4288 c-31 -35 -56 -68 -56 -74 0 -7 16 -26 35 -43 48 -41 91
-42 133 -1 37 35 55 37 82 10 37 -37 13 -120 -35 -120 -8 0 -29 14 -47 30 -25
25 -39 30 -79 30 -42 0 -50 4 -76 37 -19 23 -34 33 -42 28 -15 -9 -171 -217
-171 -227 0 -5 108 -8 239 -8 l240 0 83 -92 c46 -51 101 -112 124 -135 l40
-42 105 33 c223 71 230 88 39 96 -88 4 -123 9 -134 20 -8 8 -51 58 -95 110
l-81 94 0 68 0 67 -71 83 c-40 46 -77 86 -83 90 -6 4 -30 8 -53 8 -38 0 -46
-5 -97 -62z"/>
<path d="M1946 4304 c-9 -22 17 -49 39 -40 10 3 15 15 13 28 -4 29 -42 37 -52
12z"/>
<path d="M810 4150 c-10 -18 1 -60 15 -60 34 0 51 62 19 74 -22 8 -22 8 -34
-14z"/>
<path d="M372 3881 l-22 -38 224 5 224 5 76 -80 c54 -57 87 -83 115 -91 69
-21 84 -64 47 -134 -50 -95 -41 -148 36 -213 30 -25 34 -26 161 -24 l131 1 45
-49 c26 -27 69 -74 98 -106 l52 -57 151 0 c86 0 150 4 150 9 0 6 -30 30 -67
56 -445 303 -698 484 -698 497 0 9 -10 30 -23 47 -28 38 -163 193 -177 203 -5
4 -121 8 -256 8 l-245 0 -22 -39z m874 -396 c20 -30 9 -66 -26 -85 -28 -15
-75 29 -64 63 16 54 62 65 90 22z"/>
<path d="M1190 3450 c0 -11 7 -20 15 -20 8 0 15 9 15 20 0 11 -7 20 -15 20 -8
0 -15 -9 -15 -20z"/>
<path d="M4722 3821 c-8 -4 -12 -19 -10 -32 2 -18 9 -24 28 -24 28 0 39 27 20
50 -14 17 -20 18 -38 6z"/>
<path d="M307 3770 l-28 -50 65 0 c64 0 65 -1 107 -45 24 -26 51 -45 63 -45
37 0 66 -28 66 -64 0 -39 -26 -66 -63 -66 -32 0 -47 25 -47 75 0 26 -9 48 -32
76 -31 39 -32 39 -103 39 l-72 0 -28 -62 c-43 -98 -85 -205 -85 -219 0 -7 -11
-40 -24 -73 -13 -34 -26 -73 -30 -88 l-6 -28 89 0 90 0 53 -60 c34 -39 60 -60
74 -60 61 0 91 -84 45 -122 -30 -24 -37 -23 -67 8 -21 21 -25 31 -20 59 6 30
2 39 -40 87 -26 29 -52 56 -58 60 -6 4 -48 8 -92 8 l-82 0 -11 -44 c-6 -25
-11 -47 -11 -50 0 -3 19 -6 43 -6 24 0 50 -6 59 -12 9 -7 98 -107 198 -223
270 -311 253 -295 322 -295 l58 0 0 48 c0 36 -5 54 -20 67 -40 36 -15 115 36
115 58 0 79 -77 35 -124 -17 -18 -22 -33 -19 -62 l3 -39 108 -3 107 -3 0 49
c0 36 -5 54 -20 67 -25 23 -26 76 -2 98 26 24 68 21 86 -5 23 -32 20 -62 -10
-97 -19 -23 -25 -39 -22 -68 l3 -38 71 -3 71 -3 48 53 48 53 96 5 96 5 30 60
c34 67 25 65 151 44 76 -13 63 -16 194 44 33 15 15 16 -309 16 l-344 1 -53 55
-54 55 -180 0 c-159 0 -182 2 -197 18 -10 9 -76 83 -146 164 -121 140 -128
150 -137 204 -13 81 -64 154 -106 154 -55 0 -76 85 -29 116 45 30 93 -9 81
-67 -7 -36 30 -83 80 -101 41 -15 53 -46 30 -80 -31 -44 -21 -69 70 -174 47
-54 109 -123 137 -151 l51 -53 182 0 183 0 47 -50 47 -50 400 0 c332 0 408 3
453 16 90 26 81 44 -23 48 -32 2 -173 4 -314 4 l-257 2 -82 98 c-45 53 -88
100 -94 104 -7 4 -113 8 -237 8 l-224 2 -52 56 -53 57 0 99 c0 91 -2 100 -26
129 -20 24 -24 37 -20 61 11 55 59 73 96 36 27 -27 25 -59 -5 -100 -22 -30
-25 -44 -25 -116 0 -81 0 -82 42 -133 l42 -51 233 0 234 0 35 -37 c19 -21 60
-68 92 -105 l57 -68 278 0 c152 0 277 4 277 8 0 5 -17 18 -39 30 -36 20 -53
22 -222 23 -101 0 -192 3 -201 7 -10 4 -45 39 -79 77 -34 39 -75 85 -90 103
l-29 32 -136 0 -135 0 -35 38 c-55 58 -65 77 -71 134 -3 32 -14 67 -29 89 -17
24 -24 49 -24 80 0 49 -16 76 -90 155 l-41 44 -227 0 -227 0 -28 -50z"/>
<path d="M274 3576 c-8 -32 2 -46 31 -46 28 0 43 34 25 55 -19 23 -49 18 -56
-9z"/>
<path d="M501 3586 c-17 -20 -4 -56 18 -56 28 0 47 28 34 48 -14 23 -37 26
-52 8z"/>
<path d="M690 3585 c-19 -23 -8 -50 20 -50 16 0 26 6 28 18 4 18 -14 47 -28
47 -4 0 -13 -7 -20 -15z"/>
<path d="M3022 3151 c2 -7 7 -12 11 -12 12 1 9 15 -3 20 -7 2 -11 -2 -8 -8z"/>
<path d="M41 3007 c-14 -84 -14 -87 8 -87 11 0 55 -42 112 -107 51 -60 96
-110 99 -113 3 -3 29 -32 58 -66 l52 -61 0 -226 0 -227 -117 -132 c-64 -73
-123 -137 -131 -142 -10 -6 -12 -18 -7 -43 7 -39 25 -83 34 -83 3 0 88 94 189
209 l182 210 218 3 c263 4 239 -7 407 186 l116 132 87 0 c48 0 92 4 98 8 5 4
46 48 89 97 43 50 82 95 87 100 5 6 66 12 135 15 l127 5 -42 28 c-38 25 -49
27 -142 27 -110 0 -120 -3 -196 -61 -50 -38 -52 -39 -138 -39 l-87 0 -52 -56
-52 -56 -276 4 c-260 3 -278 4 -299 23 -12 11 -119 131 -237 268 l-215 247
-48 0 -48 0 -11 -63z m623 -622 c19 -21 32 -25 78 -25 45 0 59 4 78 25 43 46
104 24 104 -38 0 -19 -6 -42 -13 -51 -21 -25 -68 -20 -93 9 -18 21 -31 25 -73
25 -42 0 -58 -5 -79 -25 -34 -31 -70 -32 -90 -3 -50 71 30 146 88 83z"/>
<path d="M597 2373 c-13 -12 -7 -54 9 -60 23 -8 47 20 39 46 -6 20 -34 28 -48
14z"/>
<path d="M847 2374 c-13 -13 -7 -55 9 -61 24 -9 51 23 38 45 -12 19 -36 27
-47 16z"/>
<path d="M393 3063 c-19 -7 -16 -60 3 -67 34 -13 59 35 32 62 -13 13 -16 13
-35 5z"/>
<path d="M3080 2975 c0 -8 5 -15 10 -15 6 0 10 7 10 15 0 8 -4 15 -10 15 -5 0
-10 -7 -10 -15z"/>
<path d="M18 2845 c-6 -45 -5 -46 61 -113 37 -37 95 -100 129 -140 l62 -73 0
-178 c0 -198 3 -187 -79 -273 -30 -32 -41 -38 -77 -38 -24 0 -45 -4 -49 -9
-10 -17 25 -151 40 -151 7 0 55 48 106 107 154 175 139 135 139 374 l0 208
-111 128 c-166 190 -178 203 -198 203 -14 0 -20 -10 -23 -45z"/>
<path d="M3077 2774 c-8 -8 1 -24 14 -24 5 0 9 7 9 15 0 15 -12 20 -23 9z"/>
<path d="M734 2756 c-10 -26 1 -51 23 -54 14 -2 23 3 28 18 12 37 -38 71 -51
36z"/>
<path d="M993 2763 c-18 -7 -16 -52 3 -60 23 -9 51 23 38 44 -12 19 -23 24
-41 16z"/>
<path d="M4480 2755 c-16 -19 -9 -49 14 -53 35 -7 49 40 17 57 -14 8 -22 7
-31 -4z"/>
<path d="M6 2714 c-3 -26 -6 -90 -6 -144 0 -95 0 -96 30 -118 39 -29 41 -73 5
-106 -24 -23 -25 -24 -15 -107 11 -90 15 -108 32 -151 9 -25 15 -28 57 -28 43
0 49 3 88 49 l43 50 0 179 0 179 -102 118 c-57 65 -108 120 -114 122 -7 2 -14
-16 -18 -43z"/>
<path d="M1617 2599 c-23 -24 -68 -73 -99 -108 l-55 -63 -82 1 c-45 1 -90 -3
-101 -9 -25 -13 -215 -232 -235 -270 -9 -17 -14 -34 -11 -39 7 -10 -22 -51
-36 -51 -7 0 -22 10 -36 23 -23 21 -32 22 -227 25 l-203 3 -183 -206 c-101
-114 -185 -215 -187 -225 -3 -17 73 -211 96 -248 6 -9 47 32 136 133 l127 145
87 0 c48 0 92 4 98 8 6 4 44 45 84 92 40 47 79 92 87 100 10 11 47 16 156 20
l142 5 187 215 c103 118 204 239 223 268 38 55 67 66 84 33 12 -21 1 -38 -41
-64 -15 -9 -122 -125 -239 -257 l-211 -240 -137 0 c-75 0 -140 -4 -146 -8 -5
-4 -43 -45 -84 -92 -41 -47 -81 -91 -90 -97 -9 -8 -48 -13 -105 -14 l-91 0
-118 -134 c-64 -74 -119 -140 -122 -147 -5 -15 75 -160 90 -164 6 -2 60 55
120 127 61 71 119 131 130 134 11 2 38 6 59 9 23 3 50 16 66 31 14 14 36 25
49 25 37 0 74 25 129 89 l53 61 89 0 c69 0 92 4 108 18 11 9 135 151 276 314
l256 297 0 48 c1 56 10 75 67 137 l42 46 105 0 c58 0 106 4 106 9 0 5 -17 19
-37 32 -34 20 -55 23 -186 27 l-147 4 -43 -43z m-953 -640 c17 -13 26 -30 26
-49 0 -29 -39 -70 -66 -70 -17 0 -54 48 -54 72 0 19 42 68 58 68 5 0 21 -9 36
-21z"/>
<path d="M612 1938 c-29 -29 3 -83 33 -58 8 7 15 21 15 31 0 24 -33 42 -48 27z"/>
<path d="M1791 2481 c-36 -43 -41 -55 -41 -100 0 -50 -3 -56 -67 -130 -193
-221 -431 -491 -467 -528 l-40 -43 -92 0 -93 0 -55 -65 c-31 -37 -59 -78 -62
-93 -25 -114 -61 -139 -123 -87 -19 17 -47 28 -79 32 l-48 5 -99 -113 c-54
-63 -107 -124 -118 -136 -20 -22 -20 -22 13 -73 l32 -51 38 41 c32 35 43 40
80 40 38 0 47 5 88 50 l45 50 128 0 c70 0 135 3 144 6 12 5 743 837 815 928 8
10 17 42 20 70 7 71 24 64 28 -11 l3 -63 -113 -127 c-62 -71 -128 -149 -147
-175 -18 -26 -39 -49 -46 -52 -7 -2 -128 -135 -269 -295 -141 -160 -265 -295
-276 -301 -10 -5 -77 -10 -147 -10 l-129 0 -49 -50 c-43 -44 -54 -50 -90 -50
-34 0 -47 -6 -74 -34 l-33 -34 22 -34 c13 -18 35 -45 48 -60 l26 -28 199 0
c109 0 206 4 216 10 10 5 72 71 137 147 66 76 195 225 288 333 92 107 177 208
187 224 18 30 18 30 -12 63 -32 37 -34 46 -18 92 12 35 35 51 74 51 42 0 58
13 164 136 l101 115 0 164 c0 188 -9 175 115 175 87 0 107 10 81 39 -17 19
-31 21 -142 21 l-122 0 -41 -49z m-883 -1399 c3 -16 -2 -22 -17 -22 -24 0 -35
15 -27 36 9 23 40 13 44 -14z"/>
<path d="M2148 2483 c-25 -6 -11 -62 24 -95 34 -32 36 -69 6 -98 -27 -25 -39
-25 -71 0 -14 11 -37 20 -51 20 l-26 0 0 -150 0 -150 -95 -110 -95 -110 0
-158 0 -159 -271 -309 c-150 -170 -319 -362 -376 -427 l-104 -117 -94 0 c-52
0 -95 -4 -95 -8 0 -14 179 -152 197 -152 5 0 43 39 83 88 72 84 296 344 583
674 l137 159 0 161 0 161 68 81 c114 136 116 139 118 291 1 71 3 136 3 143 1
20 29 14 36 -8 3 -11 3 -51 -1 -89 -8 -82 2 -171 21 -197 21 -29 28 -11 33 82
4 76 2 89 -17 114 -26 36 -27 71 -3 93 22 20 63 22 80 5 17 -17 15 -70 -3 -94
-11 -15 -14 -53 -15 -171 l0 -153 -33 -37 c-68 -77 -67 -74 -67 -241 l0 -154
-347 -395 c-192 -218 -360 -412 -375 -431 -26 -33 -28 -43 -28 -123 0 -66 4
-90 16 -100 8 -7 21 -24 29 -39 10 -18 38 -37 101 -64 122 -53 123 -53 95 -22
-32 34 -33 87 -3 119 20 21 22 34 22 121 l0 98 143 167 c79 91 203 235 275
319 l132 152 0 268 0 267 45 52 45 51 0 82 c0 67 -4 87 -20 107 -24 31 -25 51
-4 81 21 31 67 29 88 -3 21 -32 20 -47 -4 -78 -16 -21 -20 -40 -20 -110 l0
-85 -47 -58 -47 -58 -4 -269 -5 -269 -221 -252 c-122 -138 -247 -281 -279
-319 l-57 -67 0 -89 c0 -74 3 -91 19 -105 37 -34 35 -84 -6 -124 -8 -8 -12
-19 -10 -25 2 -6 55 -28 118 -49 104 -34 115 -36 127 -21 19 26 14 66 -13 103
-32 43 -31 67 0 110 25 33 25 37 20 166 -3 75 -1 142 4 155 6 13 89 114 185
224 l175 200 1 322 0 322 45 55 45 56 0 147 c0 82 4 154 9 162 16 25 31 1 31
-50 0 -43 3 -49 20 -49 28 0 36 27 16 49 -22 24 -20 67 4 91 23 23 33 24 61 9
31 -16 42 -55 24 -90 -9 -16 -11 -29 -6 -29 14 0 29 23 33 49 4 31 28 39 35
12 5 -20 7 -19 35 11 l30 32 -23 19 c-13 10 -67 46 -119 81 -52 34 -140 94
-195 132 -131 93 -147 102 -167 97z"/>
<path d="M10 2400 c0 -37 2 -41 15 -30 8 7 15 20 15 30 0 10 -7 23 -15 30 -13
11 -15 7 -15 -30z"/>
<path d="M1940 2270 l0 -150 -100 -115 c-115 -131 -140 -169 -140 -208 0 -29
-42 -121 -60 -132 -6 -4 -106 -115 -222 -248 -335 -382 -421 -477 -432 -478
-6 -1 -100 0 -208 1 -109 1 -198 -1 -198 -4 0 -3 36 -47 81 -96 l80 -90 124 0
125 0 242 283 c133 155 298 346 365 425 117 137 123 145 123 188 0 32 4 44 15
44 11 0 15 -13 15 -53 l0 -53 -356 -410 c-195 -225 -366 -419 -380 -431 -23
-21 -35 -23 -132 -23 l-107 -1 42 -39 42 -40 103 0 c57 0 108 4 114 8 6 4 75
81 154 172 78 91 181 210 229 264 47 55 146 169 219 254 l132 155 0 161 0 161
90 103 90 104 0 153 c0 84 3 160 6 169 4 11 19 16 45 16 28 0 41 5 49 20 15
27 -14 40 -89 40 l-61 0 0 -150z"/>
<path d="M3300 2416 c0 -2 18 -24 40 -48 22 -23 40 -51 40 -62 0 -10 30 -51
66 -92 63 -70 69 -74 110 -74 50 0 22 28 383 -390 l220 -255 1 -473 0 -474 38
30 c20 16 76 67 125 112 l87 82 0 301 0 302 -366 418 -366 417 -44 0 c-50 0
-60 7 -164 128 l-71 82 -50 0 c-27 0 -49 -2 -49 -4z m1008 -1630 c-4 -25 -36
-34 -44 -12 -8 21 13 46 32 39 8 -3 14 -15 12 -27z"/>
<path d="M2130 2335 c0 -9 5 -15 11 -13 6 2 11 8 11 13 0 5 -5 11 -11 13 -6 2
-11 -4 -11 -13z"/>
<path d="M3243 2258 l-53 -20 20 -26 c24 -29 26 -65 5 -82 -20 -17 -19 -32 6
-64 15 -19 30 -26 55 -26 43 0 52 -9 250 -240 387 -453 393 -460 440 -460 29
0 64 -41 64 -74 0 -15 -11 -46 -24 -69 l-25 -42 -3 -368 c-2 -202 0 -367 3
-367 4 0 40 24 81 54 l74 55 -4 478 -5 477 -270 308 -270 308 -44 0 c-49 0
-50 1 -156 123 -56 64 -64 66 -144 35z"/>
<path d="M2186 2183 c-11 -11 -6 -23 9 -23 8 0 15 4 15 9 0 13 -16 22 -24 14z"/>
<path d="M3165 2180 c-4 -6 -3 -16 3 -22 6 -6 12 -6 17 2 4 6 3 16 -3 22 -6 6
-12 6 -17 -2z"/>
<path d="M4341 2146 c-17 -20 -4 -56 20 -56 24 0 36 27 22 48 -14 22 -28 25
-42 8z"/>
<path d="M2466 2123 c-11 -11 -6 -23 9 -23 8 0 15 4 15 9 0 13 -16 22 -24 14z"/>
<path d="M4587 2093 c-13 -13 -7 -42 12 -52 25 -14 54 16 40 42 -10 17 -40 23
-52 10z"/>
<path d="M2274 2049 c-10 -17 13 -36 27 -22 12 12 4 33 -11 33 -5 0 -12 -5
-16 -11z"/>
<path d="M3280 1987 c0 -8 8 -25 18 -38 10 -13 108 -157 217 -319 110 -162
248 -367 308 -455 59 -88 113 -162 119 -164 7 -2 9 21 6 78 -4 63 -10 88 -26
111 -12 16 -22 43 -22 60 0 17 -7 45 -16 63 -21 40 -558 653 -584 667 -16 8
-20 7 -20 -3z"/>
<path d="M2400 1887 l0 -93 -45 -53 -45 -53 0 -319 0 -319 -123 -137 c-67 -76
-153 -173 -190 -215 l-67 -78 0 -144 c0 -110 3 -146 14 -155 8 -6 19 -25 26
-41 11 -27 10 -34 -13 -68 -16 -24 -27 -56 -29 -89 -3 -29 -4 -53 -4 -53 1 0
55 -11 121 -25 66 -14 126 -25 133 -25 8 0 12 21 12 73 0 62 -4 78 -25 107
-31 42 -32 76 -2 108 21 23 22 30 22 231 l0 207 52 59 c60 67 84 112 77 142
-4 13 5 40 23 70 l28 48 0 322 0 322 31 33 c54 58 64 79 64 138 0 58 -19 100
-46 100 -11 0 -14 -19 -14 -93z"/>
<path d="M2494 1853 c-6 -62 -11 -73 -51 -117 l-44 -49 3 -318 c3 -286 5 -320
20 -336 10 -9 21 -13 25 -9 5 4 10 162 13 350 l5 342 43 49 c33 38 42 56 42
85 0 33 -23 70 -42 70 -4 0 -10 -30 -14 -67z"/>
<path d="M2590 1831 c0 -20 -15 -48 -47 -87 l-48 -59 -3 -673 c-2 -663 -2
-674 18 -699 26 -33 26 -84 0 -108 -17 -16 -20 -31 -20 -112 l0 -93 60 0 c51
0 60 3 60 18 0 26 20 42 50 42 27 0 60 -27 60 -49 0 -8 17 -11 58 -9 l57 3 -1
86 c0 73 -3 90 -22 114 -27 34 -28 65 -2 98 19 24 20 40 20 284 l0 258 -67 75
c-38 42 -101 113 -141 158 l-72 83 2 212 c3 181 5 212 18 212 13 0 16 -32 20
-212 l5 -211 133 -152 132 -151 0 -263 c0 -246 1 -264 19 -280 37 -34 35 -84
-6 -124 -16 -17 -19 -182 -2 -182 26 0 217 33 228 39 6 4 12 34 14 67 1 49 -2
65 -21 88 -27 36 -28 77 -2 101 19 17 20 31 20 222 l0 204 -227 260 -228 260
-7 82 c-3 45 -6 175 -7 288 -1 186 -3 207 -19 222 -26 24 -32 21 -32 -12z
m112 -1108 c22 -20 23 -70 1 -95 -23 -25 -68 -23 -87 4 -46 66 28 144 86 91z"/>
<path d="M2640 695 c-17 -21 -2 -50 26 -50 14 0 19 7 19 30 0 34 -24 45 -45
20z"/>
<path d="M2146 1835 c-11 -9 -30 -12 -48 -8 -26 5 -36 -1 -89 -55 -33 -34 -64
-73 -69 -87 -6 -15 -10 -93 -10 -174 l0 -147 -162 -185 c-89 -101 -272 -309
-407 -463 -189 -215 -241 -280 -230 -287 232 -144 219 -144 219 3 l0 100 71
82 c192 219 617 712 642 744 27 35 27 37 27 192 l0 157 41 52 c23 29 39 59 37
70 -3 17 -5 18 -22 6z"/>
<path d="M2682 1537 l1 -263 228 -265 229 -264 0 -203 c0 -189 2 -206 20 -229
11 -14 20 -40 20 -58 0 -19 -8 -39 -20 -50 -16 -15 -20 -31 -20 -83 l0 -64 33
6 c71 14 299 91 304 103 3 7 -5 24 -16 39 -27 34 -27 63 2 101 21 28 22 38 19
176 l-3 146 -295 338 c-346 395 -377 428 -425 453 -20 11 -39 25 -42 32 -2 7
2 42 9 78 7 36 14 101 14 146 0 71 -3 83 -23 102 -13 12 -26 22 -30 22 -3 0
-6 -118 -5 -263z m643 -1017 c10 -16 -5 -50 -21 -50 -17 0 -28 24 -20 45 6 17
32 20 41 5z"/>
<path d="M2772 1636 c8 -151 18 -166 368 -571 166 -192 318 -367 336 -388 l34
-37 0 -151 c0 -136 2 -153 20 -176 24 -31 26 -80 3 -105 -29 -32 -7 -30 82 9
69 30 94 46 120 80 19 24 31 51 29 65 -1 13 -3 53 -3 89 -1 79 21 48 -276 385
-115 131 -290 329 -387 441 l-178 204 0 54 c0 42 -5 60 -25 83 -14 17 -25 34
-25 40 0 15 -68 72 -87 72 -14 0 -15 -12 -11 -94z"/>
<path d="M2967 1583 c-4 -3 -7 -26 -7 -50 0 -44 4 -49 413 -521 l412 -477 5
-105 c4 -84 8 -105 20 -108 9 -1 44 15 78 37 l62 41 0 264 c0 145 -3 272 -6
281 -7 17 -86 75 -103 75 -6 0 -8 -6 -5 -13 8 -23 -14 -67 -40 -79 -20 -9 -30
-8 -51 6 -36 23 -36 88 0 112 14 9 23 20 20 24 -9 14 -367 252 -372 247 -2 -3
35 -49 82 -102 62 -68 96 -98 117 -102 16 -3 36 -16 45 -29 14 -22 13 -26 -6
-57 -12 -19 -21 -42 -21 -51 0 -11 -6 -16 -17 -14 -12 2 -20 17 -25 46 -9 54
-39 96 -190 267 -122 138 -209 212 -334 285 -53 31 -66 35 -77 23z"/>
<path d="M3760 1015 c-6 -8 -10 -22 -8 -32 4 -23 43 -29 51 -9 14 35 -21 67
-43 41z"/>
<path d="M2426 891 c-4 -6 -17 -11 -29 -11 -36 0 -82 -31 -136 -94 l-51 -59 0
-193 c0 -189 0 -194 25 -230 14 -20 25 -42 25 -48 0 -7 -11 -27 -25 -46 -22
-29 -25 -44 -25 -111 0 -43 4 -80 10 -84 5 -3 61 -8 125 -12 l115 -6 0 95 c0
82 -3 97 -20 113 -27 24 -26 79 0 105 20 20 21 30 18 295 -2 188 -7 278 -14
285 -8 8 -14 9 -18 1z"/>
<path d="M1614 276 c-11 -29 0 -51 26 -51 21 0 25 5 25 30 0 24 -5 31 -23 33
-13 2 -24 -3 -28 -12z"/>
<path d="M1897 284 c-13 -13 -7 -55 8 -60 21 -9 47 15 43 40 -3 21 -37 34 -51
20z"/>
<path d="M2177 284 c-13 -13 -7 -55 8 -60 21 -9 47 15 43 40 -3 21 -37 34 -51
20z"/>
<path d="M2450 276 c-27 -33 18 -72 48 -42 13 13 14 20 6 34 -15 23 -38 26
-54 8z"/>
<path d="M2827 283 c-13 -12 -7 -54 9 -60 23 -8 47 20 39 46 -6 20 -34 28 -48
14z"/>
<path d="M3101 276 c-15 -17 1 -56 23 -56 23 0 41 30 29 48 -14 23 -37 26 -52
8z"/>
<path d="M3474 276 c-11 -29 0 -51 26 -51 21 0 25 5 25 30 0 24 -5 31 -23 33
-13 2 -24 -3 -28 -12z"/>
<path d="M2647 29 c-26 -15 -20 -29 13 -29 32 0 38 11 17 28 -8 7 -18 7 -30 1z"/>
</g>
</svg>
